<?xml version="1.0" encoding="utf-8" standalone="no"?>
<!DOCTYPE svg PUBLIC "-//W3C//DTD SVG 1.1//EN"
  "http://www.w3.org/Graphics/SVG/1.1/DTD/svg11.dtd">
<!-- Created with matplotlib (http://matplotlib.org/) -->
<svg height="432pt" version="1.1" viewBox="0 0 576 432" width="576pt" xmlns="http://www.w3.org/2000/svg" xmlns:xlink="http://www.w3.org/1999/xlink">
 <defs>
  <style type="text/css">
*{stroke-linecap:butt;stroke-linejoin:round;}
  </style>
 </defs>
 <g id="figure_1">
  <g id="patch_1">
   <path d="
M0 432
L576 432
L576 0
L0 0
z
" style="fill:#ffffff;"/>
  </g>
  <g id="axes_1">
   <g id="patch_2">
    <path d="
M72 388.8
L518.4 388.8
L518.4 43.2
L72 43.2
z
" style="fill:#ffffff;"/>
   </g>
   <g id="line2d_1">
    <path clip-path="url(#p7ff5b81e1d)" d="
M72.4464 219.222
L72.8928 219.222
L73.3392 219.637
L74.6784 221.648
L76.464 223.819
L78.696 226.122
L81.3744 228.54
L84.4992 231.061
L88.5168 233.987
L92.9808 236.948
L98.3376 240.215
L104.141 243.494
L110.837 247.024
L118.426 250.772
L126.907 254.714
L136.728 259.023
L147.442 263.476
L159.494 268.242
L172.886 273.297
L188.064 278.782
L205.027 284.672
L224.669 291.25
L247.435 298.633
L275.558 307.51
L317.52 320.493
L379.57 339.708
L410.371 349.491
L435.816 357.801
L458.582 365.468
L479.117 372.617
L497.866 379.374
L515.275 385.879
L518.4 387.072
L518.4 387.072" style="fill:none;stroke:#87ceeb;stroke-linecap:square;"/>
   </g>
   <g id="line2d_2">
    <path clip-path="url(#p7ff5b81e1d)" d="
M72.4464 218.299
L72.8928 218.5
L73.7856 219.879
L75.1248 221.538
L76.9104 223.385
L79.1424 225.375
L81.8208 227.482
L85.392 229.989
L89.4096 232.534
L94.32 235.37
L100.123 238.444
L106.819 241.72
L114.408 245.171
L122.89 248.779
L132.71 252.702
L143.424 256.741
L155.477 261.049
L169.315 265.752
L184.939 270.819
L202.349 276.229
L222.437 282.235
L246.096 289.072
L275.558 297.343
L320.198 309.617
L381.355 326.462
L413.05 335.428
L439.387 343.102
L462.6 350.089
L484.027 356.77
L503.669 363.127
L518.4 368.066
L518.4 368.066" style="fill:none;stroke:#87ceeb;stroke-linecap:square;"/>
   </g>
   <g id="line2d_3">
    <path clip-path="url(#p7ff5b81e1d)" d="
M72.4464 217.569
L74.232 219.912
L76.0176 221.687
L78.2496 223.535
L80.928 225.455
L84.4992 227.715
L88.5168 229.99
L93.4272 232.514
L99.2304 235.239
L105.926 238.136
L113.962 241.353
L122.89 244.682
L133.157 248.266
L144.763 252.078
L158.155 256.231
L173.333 260.693
L190.296 265.444
L209.938 270.709
L232.704 276.576
L260.381 283.471
L297.878 292.565
L396.086 316.276
L426.888 324.003
L453.226 330.835
L476.438 337.08
L497.866 343.072
L517.507 348.794
L518.4 349.059
L518.4 349.059" style="fill:none;stroke:#87ceeb;stroke-linecap:square;"/>
   </g>
   <g id="line2d_4">
    <path clip-path="url(#p7ff5b81e1d)" d="
M72.4464 217.204
L72.8928 217.871
L73.3392 218.422
L74.6784 219.766
L76.464 221.213
L78.696 222.748
L81.8208 224.612
L85.8384 226.714
L90.7488 229
L96.552 231.438
L103.248 234.004
L111.283 236.835
L120.658 239.889
L131.371 243.137
L143.424 246.557
L157.262 250.253
L173.333 254.309
L191.635 258.696
L213.062 263.596
L238.507 269.178
L270.202 275.893
L317.966 285.757
L387.605 300.161
L422.424 307.602
L450.994 313.928
L476.438 319.785
L499.205 325.249
L518.4 330.053
L518.4 330.053" style="fill:none;stroke:#87ceeb;stroke-linecap:square;"/>
   </g>
   <g id="line2d_5">
    <path clip-path="url(#p7ff5b81e1d)" d="
M72.4464 217.003
L72.8928 217.559
L73.3392 218.018
L74.6784 219.138
L76.464 220.344
L79.1424 221.86
L82.7136 223.586
L87.1776 225.469
L92.5344 227.48
L99.2304 229.743
L107.266 232.207
L116.64 234.841
L127.8 237.733
L140.746 240.846
L155.477 244.157
L172.886 247.834
L192.974 251.842
L216.634 256.329
L245.203 261.514
L282.701 268.079
L421.085 292.095
L452.779 297.945
L480.01 303.192
L504.562 308.145
L518.4 311.047
L518.4 311.047" style="fill:none;stroke:#87ceeb;stroke-linecap:square;"/>
   </g>
   <g id="line2d_6">
    <path clip-path="url(#p7ff5b81e1d)" d="
M72.4464 216.802
L72.8928 217.247
L73.3392 217.615
L74.6784 218.511
L76.9104 219.693
L80.0352 221.053
L84.0528 222.541
L89.4096 224.268
L96.1056 226.173
L104.141 228.221
L113.962 230.489
L125.568 232.938
L139.406 235.628
L155.923 238.604
L175.118 241.833
L197.885 245.434
L225.562 249.579
L260.381 254.558
L312.163 261.714
L397.872 273.558
L437.155 279.227
L469.742 284.151
L497.866 288.619
L518.4 292.041
L518.4 292.041" style="fill:none;stroke:#87ceeb;stroke-linecap:square;"/>
   </g>
   <g id="line2d_7">
    <path clip-path="url(#p7ff5b81e1d)" d="
M72.4464 216.602
L72.8928 216.936
L73.3392 217.211
L75.1248 218.077
L77.8032 219.081
L81.8208 220.307
L87.1776 221.682
L94.32 223.265
L103.248 225.003
L114.408 226.941
L128.246 229.108
L145.21 231.525
L165.298 234.157
L189.85 237.141
L220.205 240.596
L259.042 244.78
L319.752 251.066
L403.675 259.789
L446.976 264.518
L482.688 268.638
L513.49 272.41
L518.4 273.034
L518.4 273.034" style="fill:none;stroke:#87ceeb;stroke-linecap:square;"/>
   </g>
   <g id="line2d_8">
    <path clip-path="url(#p7ff5b81e1d)" d="
M72.4464 216.401
L73.7856 216.97
L76.0176 217.625
L80.0352 218.527
L85.8384 219.572
L93.8736 220.782
L105.034 222.22
L119.318 223.824
L137.621 225.648
L160.834 227.728
L189.85 230.096
L227.347 232.923
L279.576 236.621
L441.173 247.918
L485.366 251.31
L518.4 254.028
L518.4 254.028" style="fill:none;stroke:#87ceeb;stroke-linecap:square;"/>
   </g>
   <g id="line2d_9">
    <path clip-path="url(#p7ff5b81e1d)" d="
M72.4464 216.201
L74.232 216.559
L78.2496 217.077
L85.392 217.75
L96.9984 218.604
L114.408 219.649
L139.406 220.91
L173.779 222.408
L221.544 224.252
L295.646 226.869
L446.976 232.182
L506.347 234.515
L518.4 235.022
L518.4 235.022" style="fill:none;stroke:#87ceeb;stroke-linecap:square;"/>
   </g>
   <g id="line2d_10">
    <path clip-path="url(#p7ff5b81e1d)" d="
M72.4464 216
L518.4 216.016
L518.4 216.016" style="fill:none;stroke:#87ceeb;stroke-linecap:square;"/>
   </g>
   <g id="line2d_11">
    <path clip-path="url(#p7ff5b81e1d)" d="
M72.4464 215.8
L74.232 215.442
L78.2496 214.925
L85.392 214.253
L96.9984 213.4
L114.408 212.357
L139.406 211.098
L173.779 209.603
L221.544 207.761
L296.093 205.134
L446.53 199.862
L505.901 197.534
L518.4 197.009
L518.4 197.009" style="fill:none;stroke:#87ceeb;stroke-linecap:square;"/>
   </g>
   <g id="line2d_12">
    <path clip-path="url(#p7ff5b81e1d)" d="
M72.4464 215.599
L73.7856 215.031
L76.0176 214.376
L80.0352 213.475
L85.8384 212.431
L93.8736 211.222
L105.034 209.786
L119.318 208.182
L137.621 206.36
L160.834 204.282
L189.85 201.915
L227.347 199.091
L279.576 195.396
L441.173 184.109
L485.366 180.719
L518.4 178.003
L518.4 178.003" style="fill:none;stroke:#87ceeb;stroke-linecap:square;"/>
   </g>
   <g id="line2d_13">
    <path clip-path="url(#p7ff5b81e1d)" d="
M72.4464 215.399
L72.8928 215.065
L73.3392 214.789
L75.1248 213.924
L77.8032 212.921
L81.8208 211.696
L87.1776 210.321
L94.32 208.739
L103.248 207.002
L114.408 205.065
L128.246 202.899
L145.21 200.483
L165.298 197.853
L189.85 194.87
L220.205 191.417
L259.042 187.236
L319.752 180.953
L403.675 172.235
L446.976 167.508
L482.688 163.39
L513.49 159.62
L518.4 158.997
L518.4 158.997" style="fill:none;stroke:#87ceeb;stroke-linecap:square;"/>
   </g>
   <g id="line2d_14">
    <path clip-path="url(#p7ff5b81e1d)" d="
M72.4464 215.198
L72.8928 214.753
L73.3392 214.386
L74.6784 213.49
L76.9104 212.309
L80.0352 210.949
L84.0528 209.461
L89.4096 207.736
L96.1056 205.831
L104.141 203.784
L113.962 201.517
L125.568 199.069
L139.406 196.38
L155.923 193.405
L175.118 190.177
L197.885 186.578
L225.562 182.435
L260.381 177.458
L312.163 170.305
L397.872 158.466
L437.155 152.799
L469.742 147.876
L497.866 143.411
L518.4 139.99
L518.4 139.99" style="fill:none;stroke:#87ceeb;stroke-linecap:square;"/>
   </g>
   <g id="line2d_15">
    <path clip-path="url(#p7ff5b81e1d)" d="
M72.4464 214.997
L72.8928 214.441
L73.3392 213.982
L74.6784 212.863
L76.464 211.657
L79.1424 210.142
L82.7136 208.417
L87.1776 206.534
L92.5344 204.523
L99.2304 202.262
L107.266 199.798
L116.64 197.165
L127.8 194.274
L140.746 191.162
L155.477 187.852
L172.886 184.177
L192.974 180.17
L216.634 175.685
L245.203 170.501
L282.701 163.938
L421.085 139.93
L452.779 134.082
L480.01 128.837
L504.562 123.886
L518.4 120.984
L518.4 120.984" style="fill:none;stroke:#87ceeb;stroke-linecap:square;"/>
   </g>
   <g id="line2d_16">
    <path clip-path="url(#p7ff5b81e1d)" d="
M72.4464 214.796
L72.8928 214.129
L73.3392 213.579
L74.6784 212.235
L76.464 210.788
L78.696 209.254
L81.8208 207.39
L85.8384 205.289
L90.7488 203.003
L96.552 200.567
L103.248 198.001
L111.283 195.171
L120.658 192.117
L131.371 188.871
L143.424 185.452
L157.262 181.757
L173.333 177.701
L191.635 173.316
L213.062 168.417
L238.507 162.836
L270.202 156.124
L317.966 146.262
L387.605 131.862
L422.424 124.423
L450.994 118.099
L476.438 112.243
L499.205 106.781
L518.4 101.978
L518.4 101.978" style="fill:none;stroke:#87ceeb;stroke-linecap:square;"/>
   </g>
   <g id="line2d_17">
    <path clip-path="url(#p7ff5b81e1d)" d="
M72.4464 214.432
L74.232 212.089
L76.0176 210.314
L78.2496 208.467
L80.928 206.547
L84.4992 204.288
L88.5168 202.013
L93.4272 199.49
L99.2304 196.765
L105.926 193.87
L113.962 190.653
L122.89 187.325
L133.157 183.741
L144.763 179.931
L158.155 175.779
L173.333 171.317
L190.296 166.567
L209.938 161.304
L232.704 155.438
L260.381 148.545
L297.878 139.453
L396.086 115.748
L426.888 108.022
L453.226 101.192
L476.438 94.9482
L497.866 88.9574
L517.507 83.2374
L518.4 82.9716
L518.4 82.9716" style="fill:none;stroke:#87ceeb;stroke-linecap:square;"/>
   </g>
   <g id="line2d_18">
    <path clip-path="url(#p7ff5b81e1d)" d="
M72.4464 213.702
L72.8928 213.5
L73.7856 212.122
L75.1248 210.463
L76.9104 208.616
L79.1424 206.627
L81.8208 204.52
L85.392 202.013
L89.4096 199.47
L94.32 196.634
L100.123 193.56
L106.819 190.285
L114.408 186.835
L122.89 183.228
L132.71 179.305
L143.424 175.267
L155.477 170.961
L169.315 166.258
L184.939 161.192
L202.349 155.784
L222.437 149.779
L246.096 142.943
L275.558 134.673
L320.198 122.402
L381.802 105.436
L413.496 96.4682
L439.834 88.7921
L463.046 81.8019
L484.027 75.2592
L503.669 68.9028
L518.4 63.9654
L518.4 63.9654" style="fill:none;stroke:#87ceeb;stroke-linecap:square;"/>
   </g>
   <g id="line2d_19">
    <path clip-path="url(#p7ff5b81e1d)" d="
M72.4464 212.78
L72.8928 212.78
L73.3392 212.364
L74.6784 210.353
L76.464 208.182
L78.696 205.88
L81.3744 203.462
L84.4992 200.941
L88.5168 198.016
L92.9808 195.056
L98.3376 191.789
L104.141 188.511
L110.837 184.982
L118.426 181.234
L126.907 177.293
L136.728 172.985
L147.442 168.532
L159.494 163.767
L172.886 158.714
L188.064 153.23
L205.027 147.34
L224.669 140.764
L247.435 133.382
L275.558 124.506
L317.52 111.526
L379.57 92.3148
L410.371 82.5329
L435.816 74.2248
L458.582 66.5589
L479.117 59.4115
L497.866 52.6553
L515.275 46.1522
L518.4 44.9591
L518.4 44.9591" style="fill:none;stroke:#87ceeb;stroke-linecap:square;"/>
   </g>
   <g id="matplotlib.axis_1">
    <g id="xtick_1">
     <g id="line2d_20">
      <defs>
       <path d="
M0 0
L0 -4" id="m93b0483c22" style="stroke:#000000;stroke-width:0.5;"/>
      </defs>
      <g>
       <use style="stroke:#000000;stroke-width:0.5;" x="72.0" xlink:href="#m93b0483c22" y="388.8"/>
      </g>
     </g>
     <g id="line2d_21">
      <defs>
       <path d="
M0 0
L0 4" id="m741efc42ff" style="stroke:#000000;stroke-width:0.5;"/>
      </defs>
      <g>
       <use style="stroke:#000000;stroke-width:0.5;" x="72.0" xlink:href="#m741efc42ff" y="43.2"/>
      </g>
     </g>
     <g id="text_1">
      <!-- $0.0$ -->
      <defs>
       <path d="
M42 31.8438
C42 37.9688 41.9062 48.4219 37.7031 56.4531
C34 63.4844 28.0938 66 22.9062 66
C18.0938 66 12 63.7812 8.20312 56.5625
C4.20312 49.0156 3.79688 39.6719 3.79688 31.8438
C3.79688 26.1094 3.90625 17.375 7 9.73438
C11.2969 -0.609375 19 -2 22.9062 -2
C27.5 -2 34.5 -0.109375 38.5938 9.4375
C41.5938 16.375 42 24.5 42 31.8438
M22.9062 -0.40625
C16.5 -0.40625 12.7031 5.125 11.2969 12.75
C10.2031 18.6875 10.2031 27.3281 10.2031 32.9531
C10.2031 40.6875 10.2031 47.1094 11.5 53.2344
C13.4062 61.7812 19 64.3906 22.9062 64.3906
C27 64.3906 32.2969 61.6719 34.2031 53.4375
C35.5 47.7188 35.5938 40.9844 35.5938 32.9531
C35.5938 26.4219 35.5938 18.375 34.4062 12.4531
C32.2969 1.5 26.4062 -0.40625 22.9062 -0.40625" id="CMR17-48"/>
       <path d="
M18.4062 4.79688
C18.4062 7.6875 16 9.6875 13.5938 9.6875
C10.7031 9.6875 8.70312 7.29688 8.70312 4.89062
C8.70312 2 11.0938 0 13.5 0
C16.4062 0 18.4062 2.39062 18.4062 4.79688" id="CMMI12-58"/>
      </defs>
      <g transform="translate(64.5211791232 401.317984317)scale(0.12 -0.12)">
       <use transform="scale(0.996264009963)" xlink:href="#CMR17-48"/>
       <use transform="translate(45.6904771171 0.0)scale(0.996264009963)" xlink:href="#CMMI12-58"/>
       <use transform="translate(72.7876542069 0.0)scale(0.996264009963)" xlink:href="#CMR17-48"/>
      </g>
     </g>
    </g>
    <g id="xtick_2">
     <g id="line2d_22">
      <g>
       <use style="stroke:#000000;stroke-width:0.5;" x="161.28" xlink:href="#m93b0483c22" y="388.8"/>
      </g>
     </g>
     <g id="line2d_23">
      <g>
       <use style="stroke:#000000;stroke-width:0.5;" x="161.28" xlink:href="#m741efc42ff" y="43.2"/>
      </g>
     </g>
     <g id="text_2">
      <!-- $0.2$ -->
      <defs>
       <path d="
M41.7031 15.4688
L39.9062 15.4688
C38.9062 8.39062 38.0938 7.1875 37.7031 6.59375
C37.2031 5.79688 30 5.79688 28.5938 5.79688
L9.40625 5.79688
C13 9.6875 20 16.7656 28.5 24.9375
C34.5938 30.7188 41.7031 37.5 41.7031 47.3906
C41.7031 59.1875 32.2969 66 21.7969 66
C10.7969 66 4.09375 56.2969 4.09375 47.2969
C4.09375 43.3906 7 42.8906 8.20312 42.8906
C9.20312 42.8906 12.2031 43.4844 12.2031 46.9844
C12.2031 50.0938 9.59375 51 8.20312 51
C7.59375 51 7 50.8906 6.59375 50.6875
C8.5 59.1875 14.2969 63.3906 20.4062 63.3906
C29.0938 63.3906 34.7969 56.5 34.7969 47.3906
C34.7969 38.7031 29.7031 31.2188 24 24.7344
L4.09375 2.29688
L4.09375 0
L39.2969 0
z
" id="CMR17-50"/>
      </defs>
      <g transform="translate(153.801179123 401.317984317)scale(0.12 -0.12)">
       <use transform="scale(0.996264009963)" xlink:href="#CMR17-48"/>
       <use transform="translate(45.6904771171 0.0)scale(0.996264009963)" xlink:href="#CMMI12-58"/>
       <use transform="translate(72.7876542069 0.0)scale(0.996264009963)" xlink:href="#CMR17-50"/>
      </g>
     </g>
    </g>
    <g id="xtick_3">
     <g id="line2d_24">
      <g>
       <use style="stroke:#000000;stroke-width:0.5;" x="250.56" xlink:href="#m93b0483c22" y="388.8"/>
      </g>
     </g>
     <g id="line2d_25">
      <g>
       <use style="stroke:#000000;stroke-width:0.5;" x="250.56" xlink:href="#m741efc42ff" y="43.2"/>
      </g>
     </g>
     <g id="text_3">
      <!-- $0.4$ -->
      <defs>
       <path d="
M33.5938 64.7969
C33.5938 66.8906 33.5 67 31.7031 67
L2 19.5938
L2 17
L27.7969 17
L27.7969 7.1875
C27.7969 3.59375 27.5938 2.59375 20.5938 2.59375
L18.7031 2.59375
L18.7031 0
C21.9062 0.1875 27.2969 0.1875 30.7031 0.1875
C34.0938 0.1875 39.5 0.1875 42.7031 0
L42.7031 2.59375
L40.7969 2.59375
C33.7969 2.59375 33.5938 3.59375 33.5938 7.1875
L33.5938 17
L43.7969 17
L43.7969 19.5938
L33.5938 19.5938
z

M28.0938 58.1719
L28.0938 19.5938
L4 19.5938
z
" id="CMR17-52"/>
      </defs>
      <g transform="translate(243.081179123 401.317984317)scale(0.12 -0.12)">
       <use transform="scale(0.996264009963)" xlink:href="#CMR17-48"/>
       <use transform="translate(45.6904771171 0.0)scale(0.996264009963)" xlink:href="#CMMI12-58"/>
       <use transform="translate(72.7876542069 0.0)scale(0.996264009963)" xlink:href="#CMR17-52"/>
      </g>
     </g>
    </g>
    <g id="xtick_4">
     <g id="line2d_26">
      <g>
       <use style="stroke:#000000;stroke-width:0.5;" x="339.84" xlink:href="#m93b0483c22" y="388.8"/>
      </g>
     </g>
     <g id="line2d_27">
      <g>
       <use style="stroke:#000000;stroke-width:0.5;" x="339.84" xlink:href="#m741efc42ff" y="43.2"/>
      </g>
     </g>
     <g id="text_4">
      <!-- $0.6$ -->
      <defs>
       <path d="
M10.5938 34.3438
C10.5938 58 21.7969 63.6875 28.2969 63.6875
C30.4062 63.6875 35.5 63.2656 37.5 59.0938
C35.9062 59.0938 32.9062 59.0938 32.9062 55.5938
C32.9062 52.8906 35.0938 52 36.5 52
C37.4062 52 40.0938 52.3906 40.0938 55.7969
C40.0938 62.2969 35.0938 66 28.2031 66
C16.2969 66 3.79688 53.2969 3.79688 31.4219
C3.79688 4.01562 15.0938 -2 23.0938 -2
C32.7969 -2 42 6.73438 42 20.2344
C42 32.8281 33.9062 42 23.7031 42
C17.5938 42 13.0938 37.9688 10.5938 30.9219
z

M23.0938 0.390625
C10.7969 0.390625 10.7969 18.9375 10.7969 22.6562
C10.7969 29.9062 14.2031 40.3906 23.5 40.3906
C25.2031 40.3906 30.0938 40.3906 33.4062 33.4375
C35.2031 29.5156 35.2031 25.375 35.2031 20.3438
C35.2031 14.9062 35.2031 10.875 33.0938 6.84375
C30.9062 2.70312 27.7031 0.390625 23.0938 0.390625" id="CMR17-54"/>
      </defs>
      <g transform="translate(332.361179123 401.317984317)scale(0.12 -0.12)">
       <use transform="scale(0.996264009963)" xlink:href="#CMR17-48"/>
       <use transform="translate(45.6904771171 0.0)scale(0.996264009963)" xlink:href="#CMMI12-58"/>
       <use transform="translate(72.7876542069 0.0)scale(0.996264009963)" xlink:href="#CMR17-54"/>
      </g>
     </g>
    </g>
    <g id="xtick_5">
     <g id="line2d_28">
      <g>
       <use style="stroke:#000000;stroke-width:0.5;" x="429.12" xlink:href="#m93b0483c22" y="388.8"/>
      </g>
     </g>
     <g id="line2d_29">
      <g>
       <use style="stroke:#000000;stroke-width:0.5;" x="429.12" xlink:href="#m741efc42ff" y="43.2"/>
      </g>
     </g>
     <g id="text_5">
      <!-- $0.8$ -->
      <defs>
       <path d="
M27.2031 35.7656
C33.5 38.9688 39.9062 43.7969 39.9062 51.5312
C39.9062 60.6875 31.0938 66 23 66
C13.9062 66 5.90625 59.375 5.90625 50.2344
C5.90625 47.7188 6.5 43.3906 10.4062 39.5781
C11.4062 38.5781 15.5938 35.5625 18.2969 33.6562
C13.7969 31.3438 3.29688 25.8125 3.29688 14.7656
C3.29688 4.40625 13.0938 -2 22.7969 -2
C33.5 -2 42.5 5.71875 42.5 15.9688
C42.5 25.1094 36.4062 29.3281 32.4062 32.0469
z

M14.0938 44.6094
C13.2969 45.1094 9.29688 48.2188 9.29688 52.9375
C9.29688 59.0781 15.5938 63.6875 22.7969 63.6875
C30.7031 63.6875 36.5 58.0625 36.5 51.5312
C36.5 42.1875 26.0938 36.8594 25.5938 36.8594
C25.5 36.8594 25.4062 36.8594 24.5938 37.4688
z

M32.5 24
C34 22.9062 38.7969 19.5781 38.7969 13.4531
C38.7969 6.01562 31.4062 0.390625 23 0.390625
C13.9062 0.390625 7 6.92188 7 14.8594
C7 22.7969 13.0938 29.4375 20 32.5469
z
" id="CMR17-56"/>
      </defs>
      <g transform="translate(421.641179123 401.317984317)scale(0.12 -0.12)">
       <use transform="scale(0.996264009963)" xlink:href="#CMR17-48"/>
       <use transform="translate(45.6904771171 0.0)scale(0.996264009963)" xlink:href="#CMMI12-58"/>
       <use transform="translate(72.7876542069 0.0)scale(0.996264009963)" xlink:href="#CMR17-56"/>
      </g>
     </g>
    </g>
    <g id="xtick_6">
     <g id="line2d_30">
      <g>
       <use style="stroke:#000000;stroke-width:0.5;" x="518.4" xlink:href="#m93b0483c22" y="388.8"/>
      </g>
     </g>
     <g id="line2d_31">
      <g>
       <use style="stroke:#000000;stroke-width:0.5;" x="518.4" xlink:href="#m741efc42ff" y="43.2"/>
      </g>
     </g>
     <g id="text_6">
      <!-- $1.0$ -->
      <defs>
       <path d="
M26.5938 63.7969
C26.5938 65.8906 26.5 66 25.0938 66
C21.2031 61.3594 15.2969 59.8906 9.70312 59.6875
C9.40625 59.6875 8.90625 59.6875 8.79688 59.5
C8.70312 59.2969 8.70312 59.0938 8.70312 57
C11.7969 57 17 57.5938 21 59.9844
L21 7.29688
C21 3.79688 20.7969 2.59375 12.2031 2.59375
L9.20312 2.59375
L9.20312 0
C14 0.09375 19 0.1875 23.7969 0.1875
C28.5938 0.1875 33.5938 0.09375 38.4062 0
L38.4062 2.59375
L35.4062 2.59375
C26.7969 2.59375 26.5938 3.6875 26.5938 7.29688
z
" id="CMR17-49"/>
      </defs>
      <g transform="translate(510.921179123 401.317984317)scale(0.12 -0.12)">
       <use transform="scale(0.996264009963)" xlink:href="#CMR17-49"/>
       <use transform="translate(45.6904771171 0.0)scale(0.996264009963)" xlink:href="#CMMI12-58"/>
       <use transform="translate(72.7876542069 0.0)scale(0.996264009963)" xlink:href="#CMR17-48"/>
      </g>
     </g>
    </g>
    <g id="text_7">
     <!-- $t$ -->
     <defs>
      <path d="
M20.0938 40.0938
L29.2969 40.0938
C31.2031 40.0938 32.2031 40.0938 32.2031 41.8906
C32.2031 43 31.5938 43 29.5938 43
L20.7969 43
L24.5 57.25
C24.9062 58.625 24.9062 58.8125 24.9062 59.5
C24.9062 61.0938 23.5938 62 22.2969 62
C21.5 62 19.2031 61.6875 18.4062 58.5312
L14.5 43
L5.09375 43
C3.09375 43 2.20312 43 2.20312 41.0938
C2.20312 40.0938 2.90625 40.0938 4.79688 40.0938
L13.7031 40.0938
L7.09375 13.7656
C6.29688 10.2656 6 9.26562 6 7.96875
C6 3.28125 9.29688 -1 14.9062 -1
C25 -1 30.4062 13.5625 30.4062 14.2656
C30.4062 14.8594 30 15.1562 29.4062 15.1562
C29.2031 15.1562 28.7969 15.1562 28.5938 14.75
C28.5 14.6562 28.4062 14.5625 27.7031 12.9688
C25.5938 7.96875 21 1 15.2031 1
C12.2031 1 12 3.48438 12 5.6875
C12 5.78125 12 7.67188 12.2969 8.875
z
" id="CMMI12-116"/>
     </defs>
     <g transform="translate(293.086420187 417.382343191)scale(0.12 -0.12)">
      <use transform="scale(0.996264009963)" xlink:href="#CMMI12-116"/>
     </g>
    </g>
   </g>
   <g id="matplotlib.axis_2">
    <g id="ytick_1">
     <g id="line2d_32">
      <defs>
       <path d="
M0 0
L4 0" id="m728421d6d4" style="stroke:#000000;stroke-width:0.5;"/>
      </defs>
      <g>
       <use style="stroke:#000000;stroke-width:0.5;" x="72.0" xlink:href="#m728421d6d4" y="388.8"/>
      </g>
     </g>
     <g id="line2d_33">
      <defs>
       <path d="
M0 0
L-4 0" id="mcb0005524f" style="stroke:#000000;stroke-width:0.5;"/>
      </defs>
      <g>
       <use style="stroke:#000000;stroke-width:0.5;" x="518.4" xlink:href="#mcb0005524f" y="388.8"/>
      </g>
     </g>
     <g id="text_8">
      <!-- $0.0$ -->
      <g transform="translate(53.0423582464 391.78580488)scale(0.12 -0.12)">
       <use transform="scale(0.996264009963)" xlink:href="#CMR17-48"/>
       <use transform="translate(45.6904771171 0.0)scale(0.996264009963)" xlink:href="#CMMI12-58"/>
       <use transform="translate(72.7876542069 0.0)scale(0.996264009963)" xlink:href="#CMR17-48"/>
      </g>
     </g>
    </g>
    <g id="ytick_2">
     <g id="line2d_34">
      <g>
       <use style="stroke:#000000;stroke-width:0.5;" x="72.0" xlink:href="#m728421d6d4" y="302.4"/>
      </g>
     </g>
     <g id="line2d_35">
      <g>
       <use style="stroke:#000000;stroke-width:0.5;" x="518.4" xlink:href="#mcb0005524f" y="302.4"/>
      </g>
     </g>
     <g id="text_9">
      <!-- $0.5$ -->
      <defs>
       <path d="
M11.4062 58.5938
C12.4062 58.1875 16.5 56.8906 20.7031 56.8906
C30 56.8906 35.0938 61.8906 38 64.6875
C38 65.4844 38 66 37.4062 66
C37.2969 66 37.0938 66 36.2969 65.5938
C32.7969 64.0938 28.7031 63 23.7031 63
C20.7031 63 16.2031 63.3594 11.2969 65.4844
C10.2031 66 10 66 9.90625 66
C9.40625 66 9.29688 65.8906 9.29688 63.9062
L9.29688 34.8594
C9.29688 33.0156 9.29688 32.5 10.2969 32.5
C10.7969 32.5 11 32.7031 11.5 33.4219
C14.7031 38.0469 19.0938 40 24.0938 40
C27.5938 40 35.0938 37.7344 35.0938 20.2031
C35.0938 16.9844 35.0938 11.1875 32.0938 6.59375
C29.5938 2.48438 25.7031 0.390625 21.4062 0.390625
C14.7969 0.390625 8.09375 4.98438 6.29688 12.6875
C6.70312 12.5938 7.5 12.3906 7.90625 12.3906
C9.20312 12.3906 11.7031 13.0938 11.7031 16.1875
C11.7031 18.8906 9.79688 20 7.90625 20
C5.59375 20 4.09375 18.5938 4.09375 15.7969
C4.09375 7.09375 11 -2 21.5938 -2
C31.9062 -2 41.7031 6.89062 41.7031 19.7969
C41.7031 32.0938 33.9062 41.5938 24.2031 41.5938
C19.0938 41.5938 14.7969 39.6875 11.4062 36
z
" id="CMR17-53"/>
      </defs>
      <g transform="translate(53.0423582464 305.38580488)scale(0.12 -0.12)">
       <use transform="scale(0.996264009963)" xlink:href="#CMR17-48"/>
       <use transform="translate(45.6904771171 0.0)scale(0.996264009963)" xlink:href="#CMMI12-58"/>
       <use transform="translate(72.7876542069 0.0)scale(0.996264009963)" xlink:href="#CMR17-53"/>
      </g>
     </g>
    </g>
    <g id="ytick_3">
     <g id="line2d_36">
      <g>
       <use style="stroke:#000000;stroke-width:0.5;" x="72.0" xlink:href="#m728421d6d4" y="216.0"/>
      </g>
     </g>
     <g id="line2d_37">
      <g>
       <use style="stroke:#000000;stroke-width:0.5;" x="518.4" xlink:href="#mcb0005524f" y="216.0"/>
      </g>
     </g>
     <g id="text_10">
      <!-- $1.0$ -->
      <g transform="translate(53.0423582464 218.98580488)scale(0.12 -0.12)">
       <use transform="scale(0.996264009963)" xlink:href="#CMR17-49"/>
       <use transform="translate(45.6904771171 0.0)scale(0.996264009963)" xlink:href="#CMMI12-58"/>
       <use transform="translate(72.7876542069 0.0)scale(0.996264009963)" xlink:href="#CMR17-48"/>
      </g>
     </g>
    </g>
    <g id="ytick_4">
     <g id="line2d_38">
      <g>
       <use style="stroke:#000000;stroke-width:0.5;" x="72.0" xlink:href="#m728421d6d4" y="129.6"/>
      </g>
     </g>
     <g id="line2d_39">
      <g>
       <use style="stroke:#000000;stroke-width:0.5;" x="518.4" xlink:href="#mcb0005524f" y="129.6"/>
      </g>
     </g>
     <g id="text_11">
      <!-- $1.5$ -->
      <g transform="translate(53.0423582464 132.58580488)scale(0.12 -0.12)">
       <use transform="scale(0.996264009963)" xlink:href="#CMR17-49"/>
       <use transform="translate(45.6904771171 0.0)scale(0.996264009963)" xlink:href="#CMMI12-58"/>
       <use transform="translate(72.7876542069 0.0)scale(0.996264009963)" xlink:href="#CMR17-53"/>
      </g>
     </g>
    </g>
    <g id="ytick_5">
     <g id="line2d_40">
      <g>
       <use style="stroke:#000000;stroke-width:0.5;" x="72.0" xlink:href="#m728421d6d4" y="43.2"/>
      </g>
     </g>
     <g id="line2d_41">
      <g>
       <use style="stroke:#000000;stroke-width:0.5;" x="518.4" xlink:href="#mcb0005524f" y="43.2"/>
      </g>
     </g>
     <g id="text_12">
      <!-- $2.0$ -->
      <g transform="translate(53.0423582464 46.1858048797)scale(0.12 -0.12)">
       <use transform="scale(0.996264009963)" xlink:href="#CMR17-50"/>
       <use transform="translate(45.6904771171 0.0)scale(0.996264009963)" xlink:href="#CMMI12-58"/>
       <use transform="translate(72.7876542069 0.0)scale(0.996264009963)" xlink:href="#CMR17-48"/>
      </g>
     </g>
    </g>
    <g id="text_13">
     <!-- $\boldsymbol{x}$ -->
     <defs>
      <path d="
M53.5938 39.8906
C50 38.8906 48.2031 35.5 48.2031 33
C48.2031 30.7969 49.9062 28.3906 53.2031 28.3906
C56.7031 28.3906 60.4062 31.2969 60.4062 36.1875
C60.4062 41.4844 55.0938 45 49 45
C43.2969 45 39.5938 40.6875 38.2969 38.8906
C35.7969 43.0938 30.2031 45 24.5 45
C11.9062 45 5.09375 32.6875 5.09375 29.3906
C5.09375 28 6.59375 28 7.5 28
C8.70312 28 9.40625 28 9.79688 29.2969
C12.7031 38.3906 19.9062 41.3906 24 41.3906
C27.7969 41.3906 29.5938 39.5938 29.5938 36.3906
C29.5938 34.5 28.2031 29 27.2969 25.3906
L23.9062 11.6875
C22.4062 5.59375 18.7969 2.59375 15.4062 2.59375
C14.9062 2.59375 12.5938 2.59375 10.5938 4.09375
C14.2031 5.09375 16 8.5 16 11
C16 13.1875 14.2969 15.5938 11 15.5938
C7.5 15.5938 3.79688 12.6875 3.79688 7.79688
C3.79688 2.5 9.09375 -1 15.2031 -1
C20.9062 -1 24.5938 3.29688 25.9062 5.09375
C28.4062 0.890625 34 -1 39.7031 -1
C52.2969 -1 59.0938 11.2969 59.0938 14.5938
C59.0938 16 57.5938 16 56.7031 16
C55.5 16 54.7969 16 54.4062 14.6875
C51.5 5.59375 44.2969 2.59375 40.2031 2.59375
C36.4062 2.59375 34.5938 4.39062 34.5938 7.59375
C34.5938 9.6875 35.9062 15 36.7969 18.6875
C37.5 21.2969 39.7969 30.6875 40.2969 32.2969
C41.7969 38.2969 45.2969 41.3906 48.7969 41.3906
C49.2969 41.3906 51.5938 41.3906 53.5938 39.8906" id="CMMIB10-120"/>
     </defs>
     <g transform="translate(45.4959836891 219.939389886)rotate(-90.0)scale(0.12 -0.12)">
      <use transform="scale(0.996264009963)" xlink:href="#CMMIB10-120"/>
     </g>
    </g>
   </g>
   <g id="patch_3">
    <path d="
M72 43.2
L518.4 43.2" style="fill:none;stroke:#000000;"/>
   </g>
   <g id="patch_4">
    <path d="
M518.4 388.8
L518.4 43.2" style="fill:none;stroke:#000000;"/>
   </g>
   <g id="patch_5">
    <path d="
M72 388.8
L518.4 388.8" style="fill:none;stroke:#000000;"/>
   </g>
   <g id="patch_6">
    <path d="
M72 388.8
L72 43.2" style="fill:none;stroke:#000000;"/>
   </g>
  </g>
 </g>
 <defs>
  <clipPath id="p7ff5b81e1d">
   <rect height="345.6" width="446.4" x="72.0" y="43.2"/>
  </clipPath>
 </defs>
</svg>
